<?xml version="1.0" standalone="no"?>
<!DOCTYPE svg PUBLIC "-//W3C//DTD SVG 20010904//EN"
 "http://www.w3.org/TR/2001/REC-SVG-20010904/DTD/svg10.dtd">
<svg version="1.0" xmlns="http://www.w3.org/2000/svg"
 width="234.000000pt" height="210.000000pt" viewBox="0 0 234.000000 210.000000"
 preserveAspectRatio="xMidYMid meet">

<g transform="translate(0.000000,210.000000) scale(0.100000,-0.100000)"
fill="#000000" stroke="none">
<path d="M1435 2003 c-89 -12 -245 -69 -245 -90 0 -10 6 -13 18 -10 173 58
224 64 259 36 77 -65 -163 -312 -557 -576 -186 -125 -428 -252 -564 -298 -80
-27 -174 -33 -194 -13 -16 16 -15 57 3 88 8 14 14 30 14 35 0 15 -28 -24 -55
-77 -43 -85 -26 -137 48 -147 40 -6 43 -8 46 -39 3 -32 4 -32 40 -26 169 31
448 180 733 391 90 67 106 80 174 141 17 15 45 38 63 50 18 13 29 28 26 34 -4
7 -2 8 4 4 17 -10 226 198 282 281 62 92 78 145 55 179 -26 40 -63 49 -150 37z"/>
<path d="M1845 1683 c-119 -14 -116 -13 -98 -31 12 -13 35 -17 87 -18 120 -1
153 -33 115 -111 -86 -178 -748 -547 -1289 -717 -229 -73 -428 -99 -495 -65
-25 12 -30 20 -28 49 0 19 4 49 8 65 l6 30 -30 -35 c-47 -55 -74 -117 -67
-152 7 -36 40 -67 78 -75 33 -6 33 -9 12 -52 -31 -62 1 -111 91 -142 22 -7 42
-14 44 -16 1 -1 -4 -12 -13 -25 -58 -82 41 -153 269 -194 44 -8 93 -14 108
-14 16 0 65 -16 108 -35 102 -45 126 -45 369 5 107 22 249 49 315 60 303 49
522 124 616 211 61 56 53 108 -25 154 -51 30 -53 30 -66 5 -8 -14 -7 -25 2
-39 38 -61 -64 -127 -279 -179 -272 -66 -597 -98 -903 -89 -284 8 -426 43
-449 109 l-11 31 42 -6 c32 -4 49 -14 68 -38 l27 -32 104 12 c142 17 329 54
484 97 209 57 486 149 595 197 19 9 71 30 115 47 98 39 266 127 343 179 90 61
152 136 152 184 0 56 -69 99 -197 121 -27 4 -33 2 -33 -12 0 -23 10 -34 45
-52 48 -25 46 -68 -4 -123 -112 -122 -644 -321 -1102 -412 -436 -88 -717 -82
-742 16 -4 16 0 19 28 19 24 0 35 -5 40 -19 3 -11 12 -22 20 -24 16 -7 229 42
345 78 303 96 706 290 1025 493 241 153 421 331 440 434 6 33 3 41 -22 66 -42
43 -133 59 -248 45z"/>
<path d="M475 1431 c-16 -14 -124 -51 -150 -51 -15 0 -29 -9 -36 -21 -11 -21
-10 -22 21 -15 47 9 146 55 166 77 17 19 16 27 -1 10z"/>
</g>
</svg>
